<svg xmlns="http://www.w3.org/2000/svg" width="138" height="44" viewBox="0 0 138 44" fill="none" class="">
  <g clip-path="url(#clip0_3669_1400)">
    <path d="M137.786 0H0V44H137.786V0Z" fill="#1D428A"></path>
    <path d="M28.159 9.90625V34.0084H24.1959V23.5777H13.8659V34.0084H9.90625V9.90625H13.8662V19.7964H24.1963V9.90625H28.159Z" fill="white"></path>
    <path d="M38.3996 30.6005C40.4659 30.6005 42.0149 29.6716 42.8414 28.4653L45.9074 30.2561C44.3232 32.5927 41.7394 34.0056 38.3642 34.0056C32.6826 34.0056 29.0039 30.1202 29.0039 24.9472C29.0039 19.8501 32.6898 15.8906 38.0958 15.8906C43.2281 15.8906 46.741 20.0234 46.741 24.9825C46.7308 25.5014 46.6847 26.0189 46.6032 26.5313H32.8893C33.474 29.223 35.6445 30.6005 38.3996 30.6005ZM42.9792 23.506C42.4635 20.5445 40.293 19.2673 38.0545 19.2673C35.2641 19.2673 33.3707 20.9203 32.8534 23.506H42.9792Z" fill="white"></path>
    <path d="M60.552 28.7071C60.552 32.151 57.5496 34.0054 53.8408 34.0054C50.3951 34.0054 47.9155 32.4547 46.8135 29.9752L50.0172 28.1155C50.5682 29.6662 51.9464 30.5881 53.8408 30.5881C55.4938 30.5881 56.7673 30.0371 56.7673 28.6589C56.7673 25.5946 47.5022 27.3167 47.5022 21.1511C47.5022 17.9139 50.2927 15.8828 53.8054 15.8828C56.6316 15.8828 58.9714 17.1915 60.1776 19.4644L57.0428 21.22C56.4229 19.8778 55.2185 19.2578 53.8056 19.2578C52.4634 19.2578 51.2923 19.8423 51.2923 21.0823C51.2886 24.23 60.552 22.3349 60.552 28.7071Z" fill="white"></path>
    <path d="M67.634 20.2176V28.483C67.634 30.6889 69.0804 30.6536 71.9045 30.5158V33.8568C66.1875 34.5455 63.9146 32.9614 63.9146 28.4825V20.2176H60.7461V16.636H63.9144V12.9165L67.6338 11.8145V16.636H71.9043V20.2176H67.634Z" fill="white"></path>
    <path d="M90.7555 16.3046V34.0045H87.0368V31.0446C85.7282 32.8708 83.697 33.9723 81.0108 33.9723C76.327 33.9723 72.4346 30.0109 72.4346 24.9139C72.4346 19.7816 76.3199 15.8555 81.0108 15.8555C83.697 15.8555 85.7282 16.9575 87.0368 18.7483V16.3046H90.7555ZM87.0368 24.9144C87.0368 21.7107 84.695 19.4041 81.5954 19.4041C78.4957 19.4041 76.1539 21.7107 76.1539 24.9144C76.1539 28.1181 78.4957 30.4247 81.5954 30.4247C84.695 30.4247 87.0368 28.1162 87.0368 24.9144Z" fill="white"></path>
    <path d="M110.119 27.1206C110.119 31.1154 106.882 34.0083 102.878 34.0083H92.5479V9.90625H102.124C106.009 9.90625 109.188 12.7324 109.188 16.5875C109.188 18.6875 108.259 20.4094 106.744 21.5121C108.775 22.5799 110.119 24.542 110.119 27.1206ZM96.5199 13.6204V19.9572H102.134C103.89 19.9572 105.234 18.5797 105.234 16.7889C105.234 14.9981 103.89 13.6205 102.134 13.6205L96.5199 13.6204ZM106.163 26.9139C106.163 25.0186 104.75 23.539 102.892 23.539H96.5146V30.2996H102.887C104.747 30.2996 106.158 28.8125 106.158 26.9192L106.163 26.9139Z" fill="white"></path>
    <path d="M110.905 12.2811C110.905 11.8108 111.043 11.3509 111.304 10.9595C111.565 10.5681 111.936 10.2628 112.37 10.0824C112.805 9.9019 113.283 9.85431 113.744 9.94564C114.205 10.037 114.629 10.2631 114.962 10.5954C115.295 10.9277 115.522 11.3513 115.614 11.8125C115.706 12.2737 115.659 12.7519 115.479 13.1865C115.299 13.621 114.995 13.9925 114.604 14.2539C114.213 14.5153 113.753 14.6548 113.282 14.6548C112.653 14.6548 112.049 14.4048 111.603 13.9598C111.157 13.5147 110.906 12.911 110.905 12.2811Z" fill="white"></path>
    <path d="M115.142 16.791H111.423V34.0106H115.142V16.791Z" fill="white"></path>
    <path d="M123.593 20.2176V28.483C123.593 30.6889 125.041 30.6536 127.865 30.5158V33.8568C122.147 34.5455 119.874 32.9614 119.874 28.4825V20.2176H116.705V16.636H119.873V12.9165L123.593 11.8145V16.636H127.872V20.2176H123.593Z" fill="white"></path>
  </g>
  <defs>
    <clipPath id="clip0_3669_1400">
      <rect width="137.786" height="44" fill="white"></rect>
    </clipPath>
  </defs>
</svg>